<?xml version="1.0" encoding="utf-8"?>
<!-- Generator: Adobe Illustrator 16.0.0, SVG Export Plug-In . SVG Version: 6.00 Build 0)  -->
<!DOCTYPE svg PUBLIC "-//W3C//DTD SVG 1.1//EN" "http://www.w3.org/Graphics/SVG/1.1/DTD/svg11.dtd">
<svg version="1.1" id="Слой_1" xmlns="http://www.w3.org/2000/svg" xmlns:xlink="http://www.w3.org/1999/xlink" x="0px" y="0px"
	 width="482.14px" height="172.285px" viewBox="0 0 482.14 172.285" enable-background="new 0 0 482.14 172.285"
	 xml:space="preserve">
<title>header-background</title>
<g opacity="0.3">
	<path fill="#9999CC" d="M209.57,58.087l-1.408,1.85l-0.882,0.881l-1.848,0.969l-0.265,0.792c0,0-0.704,0.704-0.615,1.231
		c0.086,0.44,0.086,0.881,0.086,1.321c-0.615,0.528-1.232,1.058-1.848,1.584c-0.439,0.353-0.882,0.793-1.321,1.233
		c-0.176,0.264-0.439,0.529-0.704,0.703c-0.44,0.353-0.793,0.793-1.055,1.32c-0.353,0.529-0.707,0.881-0.882,1.233
		c-0.439,0.528-0.792,1.231-0.968,1.937c-0.264,0.793-0.614,1.498-0.968,2.201l-0.175,0.44c0,0.793,0.089,1.585,0.265,2.378
		c0.175,0.527,0.35,0.352,0.175,1.584c-0.09,0.705-0.175,1.496-0.351,2.199c-0.179,0.529-0.707,1.586-0.882,2.027
		c-0.175,0.438,0.354,1.32,0.354,1.32s0.264,1.232,0.086,1.495c-0.175,0.267,0.089,0.793,0.089,0.793
		c0.528,0.265,0.968,0.616,1.497,0.968c0.439,0.352,0.793,0.704,1.055,1.232c0.089,0.265,0.793,1.585,0.882,1.85
		c0.265,0.527,0.615,1.057,0.969,1.584c0.176,0.264,1.054,1.32,1.054,1.32c0.529,0.352,0.969,0.792,1.498,1.32
		c0.264,0.353,1.057,0.527,1.408,0.791c0.265,0.265,0.883,0.178,1.322,0.441s1.058-0.177,1.497,0
		c0.44,0.176,1.408-0.177,1.672-0.354c0.265-0.176,0.88-0.793,1.408-0.527c0.529,0.264,0.704,0,1.058,0.087
		c0.351,0.089,0.879-0.353,1.319-0.353c0.442,0,1.321-0.353,1.586-0.353c0.264,0,1.232-0.528,1.583-0.528
		c0.354,0,0.793-0.352,1.322-0.174c0.529,0.174,0.265-0.353,1.055-0.088c0.793,0.264,1.058,0,1.411,0.264
		c0.264,0.265,0.615,0,0.879,0.352c0.264,0.354,0.703,0.616,0.792,0.969c0.086,0.354,0.615,0.706,0.615,0.706l0.529,0.087
		c0,0,0.703-0.529,0.879-0.177c0.178,0.353,0.968,0.265,0.968,0.265l0.793,0.881l0.265,0.352c0.265,0.615,0.438,1.32,0.438,2.023
		c-0.086,0.529-0.086,1.763-0.351,2.026c-0.264,0.438-0.354,0.968-0.442,1.495c0,0-0.351,0.354,0.442,1.059
		c0.615,0.527,1.144,1.145,1.672,1.76c0.529,0.615,0.88,1.32,1.055,2.025c0.089,0.615,0.354,1.231,0.619,1.848
		c0.35,0.793,0.792,0.881,0.878,1.85c0.089,0.968,0.265,0.881,0.176,1.585c-0.086,0.616-0.351,0.704-0.086,1.231
		c0.351,0.44,0.529,0.969,0.529,1.584c-0.089,0.265-0.265,1.498-0.265,1.498l-0.179,0.529l-0.791,1.584l-0.528,0.793
		c-0.354,0.703-0.439,1.407-0.439,2.2c0.086,0.882-0.439,0.882,0.266,1.849c0.614,0.879,1.143,1.762,1.582,2.729
		c0.354,0.705,0.704,1.41,0.793,2.202c0.088,0.527,0.44,0.703,0.615,1.497c0.18,0.526,0.264,1.057,0.264,1.584
		c-0.084,0.616,0,1.321,0.09,1.937c0.176,0.44,0.265,0.969,0.352,1.496c0.089,0.352-0.262,0.439,0.264,1.059
		c0.529,0.613,0.883,0.967,1.323,1.494c0.265,0.266,0.438,0.531,0.528,0.881c0.264,0.529,0.527,0.969,0.703,1.584
		c0.088,0.881,0.266,1.762,0.439,2.555c0.266,0.617,0.615,1.32,0.615,1.32s0.969,0.615,1.412,0.527
		c0.352-0.088,1.055-0.879,1.672-0.615c0.529,0.264,0.968,0,1.497,0c0.526,0,0.879-0.527,1.407-0.527
		c0.529,0,1.056-0.705,1.498-0.529c0.439,0.178,0.791-0.176,1.318-0.615c0.44-0.439,0.704-0.793,1.586-1.586
		c0.881-0.791,0.704-0.703,1.319-1.23c0.618-0.529,1.058-1.498,1.761-1.674c0.705-0.176,0.793-0.791,0.969-1.32
		c0.086-0.354,0.352-0.793,0.528-1.057c0.265-0.352,0.086,0.088,0.526-1.055c0.265-0.795,0.793-1.498,1.496-1.938
		c0.439-0.265,0.705-0.792,0.97-0.882c0.265-0.086,0.704,0.266,0.528-0.527c-0.176-0.792,0-2.023-0.176-2.289
		c-0.174-0.264-0.438,0.616-0.353-0.704c0.179-0.969,0.528-1.937,1.058-2.728c0.527-0.707,1.144-1.412,1.848-2.027
		c0.439-0.266,0.529-0.527,1.232-0.879c0.618-0.354,2.026-1.321,2.026-1.762c0-0.439,0.528-1.672,0.528-1.937
		c0-0.704-0.09-1.407-0.18-2.112c-0.174-1.584,0.18-1.231-0.349-2.642c-0.528-1.496-0.619-3.258-0.97-3.785
		c-0.353-0.528-0.174-1.674-0.174-2.024c0.174-0.616,0.525-1.145,0.879-1.674c0.265-0.352,1.496-1.85,1.496-1.85
		s1.849-2.111,2.467-3.08c0.439-0.793,1.055-1.584,1.758-2.289c0.793-0.617,1.586-1.32,2.201-2.113
		c0.617-0.881,1.937-2.641,2.025-2.906c0.264-0.439,0.528-0.791,0.793-1.232c0.44-0.527,0.879-1.145,1.229-1.848
		c0.354-1.322,0.708-2.643,0.882-4.051c-0.529,0.177-1.057,0.353-1.672,0.439c-0.354,0.09,0.527,0.441-2.116,0.266
		c-1.317-0.176-2.728-0.088-4.048,0.264c-0.794-0.176-1.498,0.703-1.762-0.528c-0.176-1.056-0.526-2.024-0.969-2.905
		c-0.526-0.879-0.879-1.32-1.758-2.465c-0.793-1.232-0.703-0.615-1.498-1.584c-0.791-0.968-0.879-0.615-1.408-1.849
		c-0.439-1.233-0.793-0.705-1.407-2.378c-0.618-1.672-0.882-1.848-1.232-2.729c-0.354-0.881-0.616-1.232-0.793-2.025
		c-0.704-1.85-1.586-3.61-2.555-5.282c-0.263-0.438-0.526-0.97-0.614-1.496c0.439,0.438,0.879,0.879,1.408,1.231
		c0.354-0.088,0.704-0.176,0.968-0.264c0.265,0,1.408,0.969,1.408,1.408s1.937,2.114,2.376,3.346c0.443,1.319,0.968,2.2,1.059,2.553
		c0.353,0.793,0.881,1.584,1.407,2.377c0.619,0.703,1.231,1.408,1.761,2.201c0.176,0.527,1.938,2.377,1.938,3.609
		c0.175,1.057,0.439,2.111,0.879,3.08c0.089,0.352,1.762,0.793,1.762,0.793l2.201-0.529c1.145-0.791,2.376-1.496,3.699-2.111
		c1.143-0.354,2.201-0.881,3.255-1.41c0,0,1.233-1.057,2.026-1.76c0.793-0.615,1.498-1.498,1.938-2.377
		c0.176-0.527,0.527-0.617,1.322-1.496c0.789-0.881,1.758-1.674,1.055-2.201c-0.705-0.528-0.969-0.352-1.938-1.32
		c-0.615-0.529-1.145-1.146-1.498-1.938c-0.614-1.232,0.09-2.553-1.318-1.232c-1.408,1.321-0.793,1.76-2.202,2.023
		c-1.407,0.266-1.937,1.234-2.554,0.266c-0.614-0.968-1.318-0.352-1.672-1.76c-0.352-1.409-0.615-1.498-0.704-2.026
		c-0.087-0.702-0.351-1.319-0.704-1.937c-0.705-1.408-0.176-3.432,0.264-2.289c0.44,1.145,1.232,1.408,2.377,2.201
		c1.232,0.791,1.76,1.496,2.818,1.584c0.704,0,1.494,0,2.201,0.176c0.175,0.176,0.352-0.088,0.79,0.089
		c0.438,0.175,0.618-0.265,0.794,0.438c0.176,0.705,1.232,0.793,1.672,1.321s0.439,0.265,1.674,0.44
		c0.969,0.088,1.85,0.176,2.818,0.176l1.758-0.088l2.025,0.175c0.615,0.353,1.232,0.617,1.848,0.793
		c0.355,0,0.443,0.968,1.412,1.585c0.613,0.264,1.229,0.704,1.672,1.32c0.525,0.617,0.439,0.881,1.232,1.585
		c0.791,0.704,1.938-0.087,2.111-0.353c0.176-0.264,1.059-0.705,0.881,0c-0.176,0.705,0.881,0.44,0.617,2.202
		c-0.266,1.761-0.439,1.32,0,2.464c0.438,1.146,2.465,4.842,2.551,5.987c0.09,1.146,0.619,0.705,0.705,1.761
		c0.088,1.057,0.617,1.409,0.617,2.113c0,0.705,0.613,0.881,0.705,1.498c0.086,0.527,1.055,0.088,1.406,0
		c0.529-0.352,1.059-0.793,1.582-1.321c0,0,0.529-0.177,0.443-1.057c-0.088-0.704-0.088-1.409,0-2.112
		c0-1.41-0.527-1.41-0.264-2.729c0.264-0.969,0.703-1.938,1.232-2.818c0.264-0.704,0.703-1.408,1.318-1.848
		c1.059-0.354,2.025-0.969,2.82-1.762c0.613-0.703,1.229-1.408,1.936-2.111c0.703-0.706,2.023-1.674,2.287-1.41
		c0.266,0.264,0.176,0.177,0.619,0.177c0.438,0,1.316,0.353,1.936,0.438c0.615,0.089,1.938,1.674,2.199,2.467
		c0.264,0.792,0.088,0.615,1.057,1.848c0.969,1.233,1.938,0.441,1.938,1.938s0,1.41,0.439,1.937
		c0.443,0.529,0.969-0.968,1.586-0.791c0.615,0.177,0.615-0.177,1.055,1.32c0.441,1.497,0.707,1.497,0.793,2.905
		c0.09,1.496-0.086,0.088-0.086,1.32c-0.088,0.793,0,1.584,0.086,2.377c0.176,1.057,0.793,1.496,0.705,1.672
		c0.264-0.881,0.438-1.76,0.354-2.641c-0.176-1.057,0-2.641,0.439-3.082c0.438-0.439,0.879-0.881,1.32,0.264
		c0.352,1.232,0.525,0.265,1.408,1.672c0.789,1.41,1.582,1.058,1.672,1.763c0.086,0.704,0.529,0.704,1.232,1.321
		c0.615,0.527,1.232-0.088,1.938-0.617c0.703-0.529,2.729-2.553,2.816-3.346s0.881-0.615-0.529-2.729
		c-1.406-2.113-1.494-2.818-2.99-4.139c-1.586-1.32-2.467-1.408-1.322-2.993c1.143-1.585,1.762-2.729,2.467-2.289
		c0.703,0.438,2.025,0.353,2.025,2.2c0,1.85-0.355,3.873,0.879,1.674c1.232-2.201,1.938-3.434,1.584-3.082
		c-0.352,0.352,0.793-0.704,0.793-0.704s0.088-0.793,1.672-1.231c0.881-0.176,1.762-0.44,2.555-0.793
		c0.969-0.793,1.848-1.76,2.377-2.904c0.266-0.793,0.967-2.29,0.793-2.905c-0.178-0.616-1.059-3.786-1.322-3.698
		c-0.176,0.088-0.09,0.088-1.318-1.232c-0.883-0.791-1.586-1.76-2.201-2.729c-0.178-0.529-0.617-0.615-0.088-1.41
		c0.527-0.791,0.793-0.615,0.879-1.32c0.088-0.704,0.793-1.232-0.527-0.704s-0.352,0.177-1.586,0.088
		c-1.23-0.088-4.313,0.616-2.729-1.319c1.586-1.938,2.025-3.082,2.291-3.082c0.264,0,1.672-1.584,1.76-0.089
		c0.088,1.497,0.615,1.058,0.705,2.026c0.086,0.968,1.938-0.969,1.938-0.969c0.439,0.088,0.789,0.352,1.055,0.617
		c0.441,0.438,0.441,1.937,0.441,1.937s-0.354-0.44,0.615,0.263c0.969,0.706,2.111,0.354,2.111,1.938s0,1.674,0.619,2.025
		c0.613,0.352,1.316,0.176,1.848-0.264c0.529-0.617,1.057-1.32,1.496-2.114c0,0,0.09-0.616-1.406-1.584
		c-1.059-0.614-2.025-1.319-2.906-2.024c-0.527-0.439-0.354-1.85,0.176-2.377s0.793-0.793,0.617-1.584
		c-0.178-0.793,0.262-1.32,1.674-1.232c1.406,0.088,1.672-0.088,1.672-0.088s0.264,0.176,0.264-0.352c0-0.529,1.76-3.082,1.32-3.082
		s0.09-0.617-0.176-1.672c-0.266-1.057,0.879-2.554-0.09-3.258c-0.791-0.527-1.498-1.32-1.938-2.201
		c-0.613-1.057-0.529-1.32-2.904-1.584c-2.377-0.265-3.436,0.528-4.049-0.176c-0.615-0.706-0.793,1.057-1.232-1.059
		c-0.264-1.232,0-2.553,0.527-3.695c0.705-0.441,1.318-0.969,1.848-1.585c0.355-0.617,1.852-0.882,2.996-0.442
		c1.143,0.442,2.904,0.354,4.4,0.617c1.498,0.266,1.408,1.232,2.113,0c0.703-1.23,0-1.76,0.527-2.376
		c0.529-0.616,1.232-1.672,1.672-0.968c0.439,0.615,1.408,1.32,2.113,0.439c0.703-0.793,0.969-0.879,0.969-0.879l0.354,0.352
		c0,0,0.793-0.441,0.793,0.354c0,0.79,0.791,1.76,0.352,2.375c-0.439,0.616-1.059,0.529-1.059,2.114c0,1.584,0,1.319,0.969,2.554
		c0.969,1.32,1.676,0.174,1.852,1.584c0.176,1.408,0.35,1.057,1.406,2.024c0.529,0.528,0.971,0.968,1.584,1.498
		c0.707,0.526,1.059,1.056,1.059,0.175c0.088-0.705,0.088-1.498,0-2.201c-0.09-0.792,0.705-1.496,0.176-2.818
		c-0.525-1.32-0.088-1.32-1.232-2.289c-1.145-0.967-1.848,0.178-2.197-1.319c-0.355-1.496,1.758-2.112,2.285-2.289
		c0.529-0.175,1.408-1.319,1.588-0.526c0.176,0.791-1.412,3.344,1.316,0.526c2.732-2.817,1.5-1.672,1.5-1.672
		c0.527-0.089,1.143-0.089,1.672,0c0.264,0.176,0.969-0.792,0.703-0.704c-0.264,0.087-2.904-1.497-2.904-1.497l-1.938-1.056
		c0.354-0.264,0.703-0.352,1.057-0.352c0.439,0.088,0.529-0.882,0.971-0.97c1.406,0.177,2.814,0.438,4.223,0.97
		c0.619,0.352,2.906,0.438,2.643,0.264c-0.264-0.176-1.76-1.32-1.848-1.674c-0.09-0.353-3.26-1.056-4.313-0.969
		c-0.885,0.176-1.854,0.264-2.73,0.09c-0.793-0.266-2.025-0.97-2.641-0.97c-0.619,0-8.717-1.584-9.07-1.497
		c-0.35,0.088-0.879,1.85-1.23,1.585c-0.354-0.264-0.705-0.264-2.023-0.616c-1.762-0.438-3.523-0.703-5.283-0.791
		c-2.289-0.178-3.873,0.174-4.49-0.529c-0.615-0.705-2.021-0.439-3.607-0.529c-1.584-0.087-3.346,0-4.225,0
		c-1.059,0-2.115-0.087-3.17-0.175c-0.443-0.089-0.969-0.704-1.588-0.794c-0.525-0.174-1.057-0.352-1.582-0.438
		c-1.059-0.178-0.969-1.408-1.408-0.354c-0.354,0.969-0.178,0.703-0.707,1.056c-0.525,0.353-0.879,0.177-1.232,0.177
		c-0.703,0.088-1.408,0-2.111-0.088c-0.527-0.264-1.059-0.441-1.674-0.354c-0.703,0.089-1.408,0-2.111-0.088
		c-1.057,0-2.199-0.264-3.17-0.616c-1.057-0.529-1.057-0.88-2.025-0.792c-0.967,0.088-0.879-0.176-2.199-0.176
		c-1.318,0-2.816,0.703-3.699,0.793c-1.145,0.086-2.197-0.09-3.256-0.354c-0.617-0.263-0.793-0.879-3.17-0.614
		c-2.377,0.264-3.785,0.264-3.258-0.44c0.354-0.616,0.793-1.144,1.32-1.584c0.266-0.087,0.881-0.527,0.439-0.705
		c-0.615-0.353-1.318-0.528-2.021-0.528c-1.059-0.088-0.969,0.352-2.645,0.178c-1.674-0.178,0.883-0.617-2.463-0.529
		c-1.496,0-3.084,0.177-4.578,0.354c-0.354,0-0.793-0.705-1.76,0.352c-0.971,1.146-2.467,1.85-4.053,1.85
		c-1.85,0.089-1.938-0.175-3.697,0.441c-1.76,0.617-2.816-0.178-2.465,1.32c0.352,1.496,0.795,2.024,0.795,2.289
		c0,0.264-0.795,2.112-1.854,0.969c-1.055-1.146-2.815-5.371-2.021-2.467c0.791,2.905,2.641,3.963,0.879,4.402
		s-1.582-0.176-1.848-0.352c-0.264-0.178,0-1.498-0.089-2.201c0-0.616-0.265-1.145-0.614-1.586
		c-0.354-0.352-0.266-0.879-0.969-1.055c-0.707-0.178-0.09-0.529-1.322-0.529s-2.199-0.705-1.938,0.88
		c0.266,1.585,0.529,0.526,1.324,2.112c0.703,1.584,2.11,0.44,1.053,1.584c-0.969,1.059-3.698,0.705-4.313,0.265
		c-0.614-0.438-0.438,0.176-1.672-0.617c-1.231-0.792-0.793-1.495-2.202-0.792c-1.408,0.704-1.847,1.848-2.376,1.408
		c-0.528-0.439-1.853,0.615-2.292,0.088s-2.285-0.527-2.641,0c-0.35,0.527-1.497,0.441-2.993,1.232
		c-1.583,0.705-1.056,0.088-2.993,1.672c-1.936,1.584-2.993,2.816-3.697,1.85c-0.615-0.969-4.138-2.729-2.729-2.992
		c1.411-0.265,2.026-0.794,2.729-0.178c0.705,0.617,1.938,0.441,2.112,0c0.179-0.439,0.968-0.879-0.086-1.496
		c-1.058-0.527-1.233-0.176-2.906-0.793c-1.761-0.615,0-0.439-2.375-0.792c-1.323-0.176-2.729-0.44-4.052-0.704
		c-0.791-0.09-1.673-0.09-2.466-0.09c-0.79-0.176-1.583-0.176-2.376-0.176c-0.881-0.088-1.674,0.176-2.377,0.705
		c-1.059,0.791-1.937,1.232-2.641,1.849c-0.705,0.617-2.641,1.938-3.17,2.377s-2.466,1.937-2.641,2.466
		c-0.176,0.527,0.175,0.969-0.529,1.407c-0.615,0.265-1.318,0.44-2.025,0.44c-0.526,0.088,0-0.793-0.526,0.088
		c-0.528,0.88-0.354,4.227,0.086,3.785c0.438-0.439,0.178-1.937,2.201-0.527c2.026,1.408,3.259,1.232,3.17,2.464
		c-0.091,1.231,1.407,1.231,1.586,1.497c0.175,0.264,1.054-0.354,1.054-0.354s2.027-1.319,2.027-1.936
		c0-0.617,1.318-2.115,1.318-2.115c-0.526-0.263-0.879-0.791-0.879-1.406c0.09-0.705,0.176-1.408,0.44-2.112
		c0.177-0.882-0.97,0,1.76-1.761c2.731-1.762,2.906-0.529,2.906-0.529s0.354,0.352-0.089,0.881
		c-0.439,0.527-1.319,2.023-1.495,2.201c-0.179,0.176,0.791,1.672,1.319,1.672c0.617-0.176,1.231-0.264,1.936-0.264
		c0.529,0.088,1.497-0.264,1.762-0.088c0.264,0.178,0.879,0.705,0.44,1.232c-0.616,0.617-1.409,0.881-2.202,0.792
		c-0.704-0.175-1.847-1.496-1.232,0.353c0.619,1.85-0.084,2.291-0.613,2.201c-0.529-0.088-1.762-0.969-1.586,0.352
		c0.089,0.968-0.529,1.938-1.497,2.289c-0.263,0-0.527-0.088-0.791-0.088c0,0-0.792-0.088-1.321-0.088
		c-0.615,0.088-1.232,0.353-1.672,0.793c-0.266,0.352-0.615,0.088-1.059,0.088c-0.439,0,0-0.528-0.879-0.705
		c-0.879-0.176-1.498-0.352-2.025,0c-0.525,0.354-1.408,0.529-1.758,0.264c-0.354-0.264,0.175-0.879-0.529-0.527
		c-0.705,0.353-1.322,1.408-1.586,1.496c-0.266,0.09,0.793,0-0.266,0.09c-0.703,0.088-1.407,0.262-2.111,0.527
		c-0.529,0.176,0.175,1.32-0.793,1.672c-0.968,0.354-0.261-0.439-1.318,0.354c-0.969,0.793-1.233,1.584-1.586,1.673
		c-0.351,0.088-0.262,0.264-1.054,0.353c-0.44,0.088-0.794,0.176-1.234,0.264c-0.439,0.088,0.089,0.264-0.878,0.088
		c-0.969-0.176-1.762,0.175-1.586,0.529c0.175,0.352,3.609,1.408,0.969,1.319c-2.641-0.089-1.762,0.353-1.233,0.704
		c0.529,0.352,0.793,0.704,1.058,0.792c0.264,0.089,0.704,1.231,0.704,1.231s0.705-0.086,0.265,0.529
		c-0.44,0.616,0.175,0.793-0.265,1.672c-0.439,0.881-0.439,0.264-0.792,0.44c-0.529,0.528-1.319,0.616-1.937,0.265
		c-0.879-0.529-1.848-0.882-2.905-0.882c-1.232-0.087-0.35-0.262-1.232,0.353c-0.704,0.529-1.055,1.322-0.879,2.201
		c0.175,0.793,0.086,1.676-0.089,2.467c-0.265,0.615-0.265,1.32-0.086,1.937c0.086,0.438,0.351,0.88,0.704,1.231
		c0,0,1.318,0.176,1.583,0.266c0.264,0.087,0.793-0.177,1.586,0.264c0.704,0.44,1.494,0.615,1.937,0.088
		c0.44-0.528,2.288-1.231,2.816-1.76c0.529-0.527,0.879-0.705,0.614-1.322c-0.261-0.615,0.529-1.937,0.969-2.201
		c0.442-0.264,0.968-0.438,1.497-0.526l1.058-1.674c0,0,0.878-0.968,1.408-0.879c0.529,0.088,2.994,0.969,2.816-0.177
		c-0.176-1.145,0.178-1.584,0.443-1.057c0.264,0.529,0.967,0.264,0.967,0.264c0.176-0.088,0.44-0.088,0.615,0.088
		c0.264,0.265,0.618,1.498,1.232,1.76c0.529,0.266,0.969,0.529,1.408,0.706c0.439,0.176,0.705,0,1.498,0.616
		c0.793,0.615,1.496,0.969,1.584,1.32c0.177,0.352,0.441,0.616,0.707,0.879c0,0,0.615,0.178,0.438,0.529
		c-0.354,0.616-0.883,1.232-1.586,1.672c-0.44,0.176-1.672-0.176-1.233,0.176c0.442,0.354,1.059,0.793,1.412,0.528
		c0.262-0.263,2.022-2.112,2.022-2.112s-0.086,0.088,0-0.438c0.089-0.529,0-1.233,0.438-0.882c0.442,0.265,0.705,0.617,0.883,0.265
		c0.174-0.353,0.351-0.176-0.09-0.44c-0.438-0.265-1.582-1.85-2.111-1.938c-0.705-0.266-1.322-0.616-1.938-0.969
		c0,0-0.264-0.266-0.882-0.969c-0.614-0.705-0.791-0.527-0.969-1.233c-0.175-0.704-0.704-1.496,0.265-1.32
		c0.969,0.265,1.762,0.794,2.555,1.409c0.879,0.527,0.705,0.705,1.584,1.32c0.883,0.617,0.883,1.056,1.586,0.969
		c0.615-0.089,1.232,0.352,1.318,0.968c0,0.087,0,0.087,0,0.175c0,0.705,0.088,1.321,0.354,1.938
		c0.175,0.176,0.703,0.528,0.88,0.881c0.264,0.528,0.528,1.146,0.793,1.672c0.264,0.353,0.528,0.704,0.793,1.058
		c0.263,0.439,0.351-0.088,0.614,0.088c0.264,0.175,0.617,0.086,0.617-0.266s0-0.703,0.086-0.968c0,0,1.322-0.353,0.883-0.528
		c-0.443-0.177-1.498-1.322-1.411-1.674c0.089-0.352,0-1.056,0.442-0.968c0.439,0.088,0.879,0.88,1.938,0.177
		c1.054-0.705,2.201-1.058,1.848,0c-0.354,1.057,0.088,1.32,0,2.465c-0.09,1.231,0.354,0.791,0.967,1.496
		c0.44,0.44,0.969,0.793,1.584,0.881c0.617,0.088,1.322,0.176,1.938,0.176c0.707,0.09,1.232-0.264,1.852-0.088
		c0.613,0.178,2.111-0.086,2.375,0.088c0.265,0.177,1.408-0.353,1.498,0.265c0.086,0.616,0.439-0.088,0.174,1.408
		c-0.174,0.881-0.35,1.674-0.614,2.466c-0.968,1.938-1.411,2.376-1.851,2.465c-0.529,0.176-1.055,0.266-1.582,0.266
		c-0.97,0-2.025-0.09-2.994-0.266c-1.233-0.264-3.346,0.266-4.313-0.264s-2.202-0.088-2.729-0.704
		c-0.529-0.617-1.498-0.528-1.849-0.88c-0.354-0.354-0.528-1.408-0.528,0.087c0,1.497-0.793,1.584-0.969,2.289
		c-0.175,0.706,0.264,0.353-0.705,0.265c-0.968-0.087-1.322,0.441-2.729-0.617c-0.879-0.617-1.938-1.144-2.906-1.584
		c-0.704-0.438-1.497,0.793-2.202-0.617c-0.704-1.408-1.758-0.263-1.847-1.496c-0.09-0.615-0.09-1.232,0.089-1.848
		c0.086-0.705,1.054-1.41,0.614-1.674c-0.439-0.266-0.09-0.704-0.703-0.439c-0.619,0.264-1.586,0.353-2.291,0.615
		c-0.704,0.266,1.672,0-1.938,0.266c-1.583,0.089-3.081,0.264-4.578,0.615c0,0-0.264-0.174-0.704,0.178s-1.055,0.879-1.762,0.615
		c-0.526-0.176-1.055-0.265-1.583-0.088c-0.529,0.088-0.88-0.439-1.583,0c-0.618,0.44-1.411,0.616-1.676,0.44
		C210.1,58.704,209.834,58.438,209.57,58.087L209.57,58.087z"/>
	<path fill="#9999CC" d="M270.845,118.306c-0.354,0.881-0.793,1.672-1.322,2.465l-1.848,0.881c-0.265,0.264-0.615,0.439-0.969,0.617
		c-0.439,0.174-0.879,0.351-1.318,0.526c0,0-0.793-0.176-0.529,0.616c0.265,0.705,0.353,1.408,0.265,2.113
		c-0.088,0.529-0.088,1.057-0.088,1.584c0,0.705-0.265,1.672-0.704,1.85c-0.439,0.175-0.879,0.352-0.793,0.969
		c0.089,0.616,0.089,2.553,0.089,2.553l1.231,1.849c0.353-0.177,0.705-0.263,1.056-0.263c0.528-0.09,1.058-0.265,1.497-0.617
		c0,0,0.793,0.176,0.703-0.793c0.09-0.793,0.18-1.672,0.265-2.465c-0.085-0.264,0.793-1.496,0.793-1.76
		c0-0.265,0.88-1.584,0.88-2.025c0-0.44,0.617-1.233,0.704-1.762c0.089-0.703,0.179-1.496,0.354-2.201
		c0.176-0.352,0.265-0.703,0.265-1.055v-1.056L270.845,118.306L270.845,118.306z"/>
	<path fill="#9999CC" d="M342.419,130.631c-0.264,0.353-0.441,4.313-0.617,4.755c-0.264,1.145-0.439,2.199-0.352,3.346
		c0.262,1.055,0.352,2.111,0.262,3.168c-0.174,0.617,0.09,2.643-0.35,2.553s-0.619,0.09-0.619,0.354
		c0,0.266,0.619,0.793,0.619,0.793c0.527,0,1.057,0,1.582-0.088c0.703-0.266,1.41-0.439,2.115-0.531c0.705,0,1.23-0.525,1.848-0.525
		c0.615,0,2.025-0.439,2.377-0.266c0.354,0.176,0.883-1.055,1.586-0.793c0.705,0.266,2.023-0.615,2.643-0.615
		c0.613,0,0.879-0.967,1.672-0.793c0.793,0.178,2.111-0.35,2.729-0.088c0.615,0.266,1.674-0.879,2.111,0
		c0.439,0.881,1.85,1.322,1.85,1.762c0,0.441-0.088,1.498-0.088,1.498l1.057-0.088c0.617-0.441,1.32-0.793,2.025-1.059
		c0.264,0,0.879-0.879,0.879-0.439c-0.176,0.705-0.439,1.32-0.703,1.938c-0.088,0.352,0,0.705,0.176,0.967
		c0,0,0.881,0.441,0.527,1.322c-0.352,0.793,0.09,0.615,0,1.32c-0.088,0.615,0,0.352,0.354,0.703
		c0.352,0.354,0.969,0.969,1.584,0.881c0.617-0.088,0.703-0.615,1.23-0.352c0.441,0.264,1.41,0.086,1.674,0.439
		c0.266,0.352-1.758,1.318,1.762-0.266c3.523-1.584,3.875-1.936,4.313-2.465c0.439-0.527,0.969-1.055,1.408-1.496
		c0.354-0.439,0.707-0.793,1.232-1.057c1.059-0.791,1.059-0.439,2.115-2.025c0.525-0.879,1.232-1.672,1.938-2.377
		c0.439-0.352,0.615-0.879,0.615-1.496c0.09-1.057,0.793-2.113,0.793-2.465c0.086-0.528,0.176-1.056,0.176-1.584
		c-0.09-0.617,0.354-1.584-0.176-2.465s0.264-1.322-0.529-1.673c-0.793-0.353-1.408-0.176-1.584-0.792
		c-0.178-0.615-0.883-0.529-1.23-2.29c-0.355-1.76-1.412-1.937-1.412-1.937s-1.055-0.44-0.791-0.616
		c0.266-0.179,0.352-1.497,0.266-1.851c-0.09-0.615-0.178-1.144-0.354-1.76c-0.264-0.527-0.439-1.32-0.703-1.937
		c-0.266-0.616-0.705-0.792-0.881-1.585c-0.09-0.44-0.266-0.793-0.527-1.232c-0.09-0.177-0.266-1.056-0.439-0.087
		c-0.18,0.968-0.529,2.905-0.529,2.905s-0.703,1.583-0.969,2.025c-0.264,0.438-0.527,1.67-0.967,1.584
		c-0.439-0.09-0.705,0.439-1.059,0.351c-0.354-0.087-0.879,0.089-1.232-0.177c-0.352-0.438-0.879-0.791-1.408-1.055
		c-0.352-0.088-0.615-0.793-0.881-0.793c-0.264,0-0.703-0.615-0.617-0.968c0.09-0.354,0.18-1.233,0.266-1.585
		c0.176-0.441,0.354-0.792,0.617-1.232c0,0,0-0.529-0.441-0.529c-0.525,0-1.055,0-1.584-0.088c-0.969-0.088-1.322-0.178-1.672-0.178
		c-0.355,0,0.35-0.175-0.619,0.09c-0.969,0.263-1.494,0.969-2.111,1.672c-0.613,0.617-0.086,0.439-0.613,0.617
		c-0.529,0.174-0.443-0.441-0.793,0.527c-0.355,0.969,0.174,1.32-0.09,1.497c-0.266,0.177-2.201-0.616-2.201-0.616
		s0.441-0.088,0.09-0.529c-0.355-0.439-0.705-1.057-1.322-0.791c-0.525,0.176-0.969,0.527-1.408,0.881
		c-0.35,0.439-0.35,0.791-0.613,1.232c-0.266,0.439-0.971,0.353-1.061,0.704c-0.086,0.351-0.086,1.319-0.35,1.408
		c-0.266,0.087-0.354-0.353-0.617-0.44c-0.266-0.088-0.176-0.793-0.352-0.353c-0.18,0.438-0.354,0.353-0.617,1.056
		c-0.266,0.704-0.352,1.408-0.615,1.498c-0.266,0.088,0,0.174-0.793,0.614s-0.969,0.44-2.201,0.97
		c-1.232,0.527-0.879,0.527-1.762,0.615c-0.527,0.088-1.055,0.266-1.584,0.441c-0.527,0.086-1.059,0.352-1.496,0.705
		c-0.355,0.438-0.879,0.703-1.408,0.791C342.945,130.278,342.681,130.454,342.419,130.631L342.419,130.631z"/>
	<path fill="#9999CC" d="M347.876,94.536c-0.352,0.527-1.584,2.201-2.025,2.289c-0.439,0.087-0.879,0.527-1.318,0.439
		s-1.232,0-1.498,1.232c-0.264,1.232-0.703,1.85-0.969,1.761c-0.264-0.088,0.441,1.761-1.057,0.97
		c-1.494-0.793-0.971,0.615-1.232,0.969c-0.262,0.352,0.264,1.408,0.354,1.76c0.176,0.527,0.439,1.057,0.705,1.585
		c0.354,0.528,0.617,1.231,1.32,0.969c0.879-0.088,1.76-0.088,2.643,0c0.35,0.175,0.793,0.265,1.232,0.265
		c0.438,0,0.527-0.178,0.789-0.178c0.266,0,0.793-0.88,0.707-0.968c-0.088-0.087-0.354-0.353,0.176-0.88
		c0.527-0.527,1.232-0.705,1.318-1.409c0.09-0.704-0.176-0.614,0.09-0.968c0.264-0.352,0.879-0.266,0.703-0.616
		c-0.174-0.353,0.176-0.265-0.174-0.968c-0.355-0.704-0.795-0.969-0.441-1.938c0.352-0.969,0.705-1.057,0.615-1.672
		c-0.09-0.617,0.439-0.705-0.174-1.408c-0.355-0.441-0.883-0.795-1.41-0.969L347.876,94.536L347.876,94.536z"/>
	<path fill="#9999CC" d="M365.837,103.692c0.354-0.088,1.672-0.969,1.76,0.615s0.178,1.233,0.705,2.114
		c0.529,0.88,0.881,1.231,1.584,0.704c0.703-0.529,1.408-0.441,1.586-1.32c0.176-0.791,0.176-0.791,0.705-0.791
		c0.525,0,0.703-0.088,0.967,0.264c0.266,0.352,0.439,0,1.674,0.615c1.232,0.619,2.201,0.44,2.904,1.057
		c0.705,0.617,1.057,0.529,2.113,0.881s0.527-0.176,1.496,0.792c0.969,0.97,0.527,1.321,0.969,1.761
		c0.439,0.44,0.793-0.352,0.613,0.704c-0.174,1.058-1.492,0,0.443,1.584c1.938,1.585,2.201,1.851,2.816,2.29
		c0.613,0.441,1.057,0.969,0.527,0.969c-0.527,0-2.291,0-2.465-0.265c-0.176-0.263-0.969-0.44-1.584-1.056
		c-0.529-0.617-1.762-1.057-2.025-1.674c-0.176-0.438-0.617-0.703-1.059-0.703c-0.439,0-0.879,0.529-1.582,1.234
		c-0.705,0.703-0.354-0.355-1.232-0.091c-0.793,0.177-1.588,0-2.201-0.44c-0.439-0.351-0.355-0.879-1.059-0.614
		c-0.703,0.264-1.23,0.087-0.881-0.44c0.178-0.441,0.178-0.881,0.09-1.32c0,0,0.262-0.881-0.354-1.058
		c-0.615-0.175-0.615-0.792-1.322-0.968c-0.523-0.176-1.143-0.439-1.672-0.617c-0.086,0-0.266-0.087-0.35-0.087
		c-0.355-0.087-0.705-0.176-0.971-0.265c-0.703-0.176-1.318,0-1.672-0.439c-0.178-0.352-0.264-0.704-0.178-1.057
		c0,0,1.498,0.176,0-0.881l-1.494-1.057c0.086-0.089,0.176-0.176,0.086-0.264l0,0C364.779,103.517,365.837,103.692,365.837,103.692
		L365.837,103.692z"/>
	<path fill="#9999CC" d="M324.636,96.03c0.354,0.266,0.793,0.441,1.23,0.354c0.705-0.088,1.32,1.497,1.764,2.025
		c0.439,0.617,1.055,1.057,1.758,1.496c0.969,0.617,0.883-0.527,2.291,1.41c1.408,1.937,0.703,0.703,1.408,1.937
		c0.354,0.791,0.793,1.496,1.406,2.112c0.354,0.353,0.617,0.793,0.703,1.32c0.09,0.265,0.705,1.059,0.705,1.41
		c0.18,1.057-0.352,2.023-1.408,2.375c-0.527-0.264-1.055-0.615-1.496-1.055c-0.525-0.704-1.055-1.41-1.494-2.113
		c-0.617-1.057-1.412-2.289-1.762-2.816c-0.439-0.528-0.793-1.057-1.232-1.674c-0.266-0.527-0.969-2.199-1.408-2.375
		c-0.439-0.178-0.439-0.705-1.059-1.41c-0.613-0.616-0.527-1.231-0.791-1.584c-0.268-0.352-0.881-1.231-0.881-1.231L324.636,96.03
		L324.636,96.03z"/>
	<path fill="#9999CC" d="M146.625,167.431c-0.618-0.354-2.026-0.969-2.465-1.408c-0.704-0.795-1.322-1.586-1.851-2.379l-0.969-1.936
		c0,0-1.23-1.496-0.879-2.025c0.265-0.527,0.793-0.881,0.793-1.232s0.529-0.969,0.086-1.32c-0.439-0.264-0.439-0.352-0.704-1.232
		c-0.264-0.791-0.264-1.584-0.615-1.76c-0.354-0.176-0.618-1.408-0.969-1.496c-0.353-0.088-0.704-0.705-0.704-0.705l-0.529-7.395
		c0,0-0.175-3.346-0.354-4.141c-0.175-0.791,0.265-2.287-0.175-3.695c-0.44-1.41,0.089-2.994-0.175-3.609
		c-0.265-0.615,0.175-2.113-0.089-3.609c-0.265-1.496,1.058-3.258,0-3.875c-1.055-0.616-0.265-1.408-1.233-1.408
		c-0.879-0.088-1.759-0.439-2.376-1.057c-0.793-0.615-2.376-1.849-2.816-2.289s-1.937-1.672-2.376-2.023
		c-0.443-0.354-0.883-1.938-1.323-2.377c-0.353-0.441-0.528-1.85-1.057-2.641c-0.525-0.793-1.318-2.203-1.494-2.465
		c-0.178-0.266-2.201-2.642-2.201-2.642l0.175-1.498c0,0,1.408-0.792,1.233-1.056c-0.175-0.264,0.086-0.528-0.529-1.055
		c-0.529-0.529-0.615-1.324-0.089-1.938l0.089-0.089c0.529-0.616,0.969-1.232,1.408-1.938l1.408-2.289c0,0,1.057-1.232,1.057-2.025
		s1.586-1.409,0.619-2.113c-0.968-0.704-0.443-1.409-0.707-1.938c-0.261-0.526-0.086-0.879,0.707-1.496
		c0.879-0.793,1.583-1.584,2.287-2.553c0.439-0.088,0.879-0.176,1.408-0.265c0.265,0,0.704-2.903,1.586-0.968
		c0.879,1.937,1.054,0.881,0.79,2.289c-0.261,1.408,0.353,1.057,0.707,0.703c0.351-0.351-0.179,0.266,0.526-1.406
		c0.704-1.672,0.442-2.202,0.882-1.762c0.351,0.44,0.879,0.705,1.498,0.793c0.79,0.265,1.054,0.174,1.408,0.703
		c0.264,0.528,0.175-0.176,1.759,0.088c1.586,0.265,3.788-0.527,3.434,0.352c-0.264,0.881-0.79-0.087,0.44,0.881
		c1.233,0.969,1.497,1.232,2.201,1.408c0.968,0.089,1.851,0.529,2.465,1.232c1.058,1.058,1.408,1.232,1.672,1.762
		c0.265,0.527,0.704,0.175,1.233,0.703c0.44,0.44,1.144,0.617,1.762,0.531c0.615,0,0-0.531,0.969,0.174
		c0.968,0.705,1.761,0.793,2.201,2.289c0.44,1.498,1.408,1.41,0.615,2.818c-0.79,1.408-2.202,2.113-1.583,2.023
		c0.704-0.264,1.408-0.439,2.201-0.526c0.351,0.087,0.529-0.265,1.055,0c0.529,0.263,0.617-0.353,0.529,0.263
		c-0.086,0.617-0.086,0-0.086,0.617c0,0.616-0.178-0.617,0.879-0.352c1.058,0.264,0.439-0.527,1.761,0.617
		c1.319,1.231,1.319,0.791,1.759,1.496c0.442,0.617,0.882-0.352,1.233-0.086c0.354,0.262,1.058,0.086,1.937,0.262
		c0.882,0.177,0.264-0.527,1.586,0.265c1.319,0.793,2.552,0.528,2.816,1.319c0.264,0.795,0.969,0.441,1.407,0.882
		c0.354,0.44,0.529-0.177,0.883,0.44c0.35,0.617,1.496,0.44,1.318,1.058c-0.175,0.614,0.264,0.264,0.089,1.231
		c-0.175,1.057-0.705,1.938-1.408,2.729c-0.529,0.353-0.529,0.792-0.883,1.321c-0.35,0.527-0.264-0.439-0.703,0.793
		c-0.44,1.32-0.351,1.496-0.704,2.641c-0.175,0.354-0.265,0.792-0.351,1.232c-0.265,1.231-0.089,1.938-0.354,3.258
		c-0.264,1.32-0.175,1.408-0.35,2.377c-0.179,0.968,0.439-0.439-0.354,1.672c-0.793,2.113-0.879,2.025-1.233,2.904
		c-0.265,0.882,0.089,0.177-0.879,0.705c-0.529,0.354-1.058,0.615-1.673,0.705c-1.233,0.352-2.641,0.705-3.083,0.791
		c-0.439,0.088-2.287,0.617-1.758,1.763c0.526,1.144,0.526,1.321,0,2.642c-0.529,1.318-1.411,1.85-1.411,2.463
		c-0.086,0.617-0.264,1.146-0.439,1.762c-0.086,0.441,0.793-0.438-0.265,0.881c-1.055,1.322-1.233,0.969-1.583,1.85
		c-0.353,0.793,0,0.176-0.353,0.793c-0.351,0.439-0.79,0.791-1.319,0.881c0,0,0.085,0.439-0.265,0.262
		c-0.354-0.174-0.264,0.09-1.672-0.262c-1.408-0.355-1.586-1.322-1.762-0.617c-0.175,0.617,0.089,0.969,0.879,1.672
		c0.793,0.617,2.201,0.793,1.851,1.496c-0.178,0.355-0.439,0.705-0.618,0.969c-0.265,0.354,0.354,0.09-0.265,0.354
		c-0.615,0.264-0.968,1.498-1.319,1.498c-0.353,0-0.439,0.438-0.792,0.264c-0.351-0.178-1.319-0.793-1.498-0.441
		c-0.175,0.355-0.529-0.439-0.439,0.795c0.09,1.23,0.264,2.023-0.175,2.285c-0.44,0.268-1.586,0-1.586,0l-0.351,0.18l-0.618,0.176
		c0,0-0.264,1.057,0.178,1.32c0.439,0.264,0.351,0.352,0.791,0.879c0.265,0.441,0.354,1.057,0.178,1.586c0,0,0,0.266-0.442,0.705
		c-0.35,0.262-0.615,0.701-0.704,1.057c-0.086,0.264-0.615,1.496,0.178,1.408c0.791-0.088,1.494-0.529,1.494,0.881
		c0,1.408,0.354,1.057-0.085,2.111c-0.44,0.969-0.793,1.059-0.882,2.025c-0.086,0.527,0,1.057,0.265,1.584
		c0.178,0.527,0.618,0.264,0.178,0.527C147.856,167.606,147.24,167.606,146.625,167.431L146.625,167.431z"/>
	<path fill="#9999CC" d="M123.029,92.951l-0.615-0.882c-0.178-0.264-0.443-0.528-0.707-0.615c-0.44-0.088-1.494-1.32-1.494-1.32
		c-0.265-0.265-0.443-0.617-0.443-0.969c-0.175-0.881-0.175-1.85-0.085-2.73c0.264-0.968,0.35-1.848,0.264-2.815
		c-0.089-0.353,0.44-0.44-0.178-0.794c-0.879-0.352-1.848-0.527-2.727-0.439c-0.705,0-1.408,0.176-2.026,0.354
		c0.354-1.057,0.704-2.202,1.232-3.17c0.354-0.881,0.704-1.85,0.969-2.729c0-0.265,0.264-0.354-0.265-0.706
		c-0.615-0.44-1.319-0.526-2.026-0.263c-0.526,0.263-0.439-0.354-0.879,0.704c-0.439,1.056-0.879,2.288-1.497,2.464
		c-0.615,0.177-1.673,0.706-1.673,0.706s-1.408-0.089-1.847-0.177c-1.058-0.353-1.937-0.969-2.73-1.76
		c-0.351-0.881-0.529-1.763-0.529-2.644c0-0.616,0.968-2.554,0.882-2.992c-0.089-0.44,0.968-2.29,0.879-2.553
		c0-0.528,0.175-1.058,0.439-1.585c0.264-0.354,1.672-0.792,2.025-1.233c0.439-0.44,1.055-0.792,1.673-0.968
		c0.529-0.176,1.058-0.354,1.673-0.354c0.44,0,1.672-0.967,1.847,0c0.179,0.969,0.968,0.617,1.497,0.707
		c0.529,0.088,0.529,0.526,1.322-0.617c0.79-1.145,1.497-1.584,1.497-1.32s1.23-0.089,1.408,0.176
		c0.175,0.264,0.528-0.176,1.232,0.352c0.704,0.529,1.583,0.617,1.497,0.881c-0.089,0.265,0.351,0.265,0.351,0.529
		c0,0.262,0.353-0.617,0.353,0.969c0,0.879,0.176,1.847,0.439,2.64c0,0,0.616,1.409,0.879,1.058c0.265-0.353,0.794-0.97,0.794-0.97
		s0.878-0.528,0.264-2.465c-0.618-1.938-0.175-2.464-0.354-3.081c-0.175-0.615-0.175-0.968,0.882-1.85
		c1.055-0.881,3.785-2.641,4.4-2.992c0.618-0.352,2.114-1.41,2.114-1.41c0.351-0.175,0.615-0.615,0.615-0.968
		c0.089-0.704,1.851-2.025,1.937-2.376c0.089-0.352,1.322-1.321,1.322-1.321s1.319-0.704,1.232-1.231
		c-0.089-0.44,1.672-1.32,1.937-1.32s1.759,0.438,1.759-0.354c0-0.793,0-0.968,0.882-1.762c0.879-0.791,2.112-1.848,2.551-1.848
		c0.883-0.264,1.762-0.616,2.642-0.967c0.618-0.178,2.64-1.059,0.792,0c-1.848,1.056-0.615,0.439-0.968,1.408
		c-0.351,0.967-0.615,2.113,1.057,0.704c1.673-1.407,1.673-1.672,2.288-1.761c0.618-0.089,0.178,0.266,1.586-0.176
		c1.408-0.439,1.497-0.616,1.497-0.616s0.615-0.526,0.261-0.792c-0.35-0.266,0.354-0.616-0.968-0.087
		c-1.319,0.526-1.319,0.614-2.198,0.353c-0.882-0.266-2.29-0.178-1.322-1.059c0.969-0.879,2.291-1.23,1.498-1.585
		c-0.793-0.353-2.905,0.089-3.169,0.177s-0.879-0.088-1.497,0c-0.615,0.088-0.351-0.703,0-0.881
		c0.968-0.439,1.937-0.792,2.994-1.057c1.937-0.353,3.874-0.439,5.896-0.439c0.793,0,1.937,0.176,2.555-0.264
		c0.793-0.441,1.497-0.969,2.112-1.586c0.265-0.352,0.529-0.616,0.882-0.881c0,0,0.79-0.791,0.35-1.232
		c-0.439-0.439-0.879-1.232-1.318-0.969c-0.443,0.266-0.089,1.322-0.793,0.09c-0.704-1.232-0.618-1.409-0.969-1.674
		c-0.353-0.264-0.704-0.088-0.439-1.407c0.176-0.617,0.264-1.233,0.176-1.851c0,0,0.264-1.056,0-1.231
		c-0.265-0.089-0.44-0.353-0.88-0.089c-0.443,0.266-2.994,1.586-3.612,1.851c-0.526,0.265-1.319-1.057-0.968-1.761
		c0.264-0.615,0.089-0.264-0.262-1.232c-0.354-0.968-1.851-1.057-2.379-1.057c-0.526,0-1.848-0.792-2.201-0.264
		c-0.791,0.879-1.673,1.761-2.642,2.465c-0.351,0.177-0.879-1.584-1.233,1.32c-0.261,2.818,0.969,3.699-0.439,3.875
		c-0.968,0.176-1.937,0.527-2.729,0.967c0,0-1.23,0.09-1.23,0.793c0,0.705-0.443,2.465-0.968,2.641
		c-0.882,0.178-1.762-0.087-2.379-0.615c-0.44-0.529,0.089-2.553,0.089-2.553l0.793-0.792c0,0-5.899-0.881-5.724-1.319
		c0.089-0.354-1.758-0.97-1.937-1.584c-0.175-0.707-0.264-1.498-0.086-2.203c1.055-1.319,2.466-2.377,3.959-3.082
		c1.322-0.438,3.435-1.494,4.138-1.672c0.704-0.177,1.762-0.088,2.115-0.529c0.264-0.352,0.439-0.791,0.439-1.319
		c0,0-0.175-1.321,0.176-1.056c0.353,0.264,0.968,0.439,1.057,0.703c0.086,0.265,0.086,0.881,0.704,0.177
		c0.615-0.616,1.408-1.058,2.201-1.409c0.704-0.352,1.848-0.264,2.465-0.615c0.615-0.353,1.759-0.705,1.848-1.674
		c0.089-0.969-0.265-0.617-0.705-0.704c-0.439-0.087,0.176,0.087-1.408,0.794c-1.586,0.703-1.057,0.174-2.201,0.703
		c-1.147,0.527-1.233,0.616-1.322,0.176c0-0.441,0-0.793,0.175-1.234c0,0,0.09-0.086-0.525-0.262
		c-0.618-0.178-0.618,0.088-0.704-0.705c-0.089-0.793,0.44-2.024-0.443-1.672c-0.879,0.352-1.758-0.266-2.376,1.584
		c-0.614,1.848-2.816,3.785-3.345,3.256c-0.529-0.439-0.615-0.527-1.058-0.527c-0.439,0-1.054-0.528-1.937-0.616
		c-1.319-0.089-2.641-0.089-3.96,0c-0.618,0.087-1.411-0.353-1.937,0.175c-0.529,0.528-1.411,1.32-1.411,1.584
		c0,0.266-0.79-0.968-1.055-0.88c-0.265,0.089-0.968-0.353-1.851-0.353c-0.526-0.088-1.143-0.262-1.672-0.439
		c-0.265,0,0.265-0.703,0-0.792c-0.265-0.089-6.25-0.265-6.25-0.265c-0.879-0.352-1.761-0.529-2.64-0.616
		c-0.705,0.087-2.73,0.175-4.313,0.438c-1.586,0.265-3.874,1.232-4.578,1.32c-0.704,0.09-2.376,0.09-2.641-0.354
		c-0.264-0.438,0.086-0.352-0.264-0.438c-0.354-0.088-0.089-0.266-0.882-0.882c-0.791-0.616,0.354-1.233-1.319-1.233
		c-1.673,0-2.641-0.086-4.138,0c-1.497,0.09-4.491,0.793-4.842,0.705c-0.354-0.088-3.259,0.441-3.785,0.178
		c-0.442-0.266-2.729,0.968-3.169,0.879c-0.882-0.088-1.762,0.088-2.644,0.354c-0.44,0.264-2.641,0.791-1.937,1.319
		c0.443,0.265,0.708,0.705,0.708,1.233c0.085,0.264-0.708,0.879-0.708,0.879c-0.439-0.088-0.79-0.176-1.23-0.353
		c-0.968-0.353-2.115-0.528-2.555-0.264c-0.439,0.264-1.319,0.792-1.058,1.231c0.265,0.44,1.498,1.232,1.676,0.881
		c0.175-0.353,0.614-0.793,1.23-0.705c0.528,0.088,1.411-0.353,0.618,0.529c-0.439,0.703-1.058,1.143-1.848,1.494
		c-0.443,0.09-1.586,0.178-2.555,0.266c-0.969,0.088-0.879-0.353-1.848,0.529c-0.968,0.879-1.322,0.352-1.497,1.407
		c-0.175,1.056-0.354,0.97,0,1.319c0.351,0.354-0.704,0.354,0.09,0.617c0.79,0.265,1.847,0.529,1.758,0.793
		c-0.086,0.264,0.882-0.354,0.353,0.353c-0.529,0.704-0.882,1.409,0.175,0.616c1.058-0.793,1.762-0.176,2.641-0.616
		c0.882-0.44,1.851-0.528,2.376-0.881c0.529-0.353,0.794-0.882,1.676-1.231c0.879-0.353,0.262,0.086,0.351,0.528
		c0.089,0.438,0,0.526,0.529,0.175c0.529-0.354,0.529-0.088,1.318-0.527c0.793-0.44,1.586-0.881,2.115-0.615
		c0.351,0.175,0.705,0.264,1.055,0.264c0.354,0-0.439-0.089,0.354,0c0.793,0.087-0.354-0.264,2.376,0.352
		c2.73,0.617,3.435,0.176,3.699,1.23c0.264,1.059,0.529-0.087,0.968,0.529c0.44,0.615,0.704,0.088,0.968,1.232
		c0.175,1.497,0.086,2.992-0.175,4.489c-0.178,0.353-0.264,0.353-0.178,1.233c0.089,0.791,1.233,4.752,0.793,5.017
		c-0.354,0.177-0.793,0.353-1.232,0.353l-0.439,1.674c-0.354,0.703-0.879,1.408-1.409,2.111c-0.618,0.704-1.497,1.674-1.937,2.289
		c-0.439,0.793-0.882,1.586-1.497,2.379c-0.618,0.615-1.232,0.352-0.969,1.76c0.176,1.408,0,2.816,0.176,3.873
		c0.175,1.056,0.529,2.023,0.968,2.904c0.354,0.529,0.618,0.529,1.322,0.969c0.615,0.44,1.497,0.969,1.408,1.498
		c-0.089,0.527,0.089,3.258,0.089,3.258c0.351,0.617,0.526,1.232,0.615,1.938c0.089,0.704,0.354,1.407,0.704,2.023l0.529,1.232
		c0,0,0.264,0.088,0.615,0.792c0.178,0.353,0.353,0.705,0.442,1.058c0.086,0.352,0.086,0.264,0.086,0.352
		c0-0.704-0.086-1.32-0.264-2.023c-0.175-0.441-0.175-0.97-0.351-1.584c-0.179-0.617,0.086-1.233-0.44-2.026
		c-0.353-0.527-0.706-1.144-0.792-1.761c-0.265-0.793-0.618-1.762-0.265-1.938c0.351-0.177,0.615-1.41,1.408,0
		c0.793,1.408,0.793,0.969,0.879,2.111c0,0.707,0.265,1.322,0.618,1.938c0.265,0.441,0.879,2.025,1.319,2.643
		c0.354,0.617,0-0.353,0.793,0.879c0.528,0.793,0.968,1.674,1.408,2.553c0.443,0.969,0.705,0.969,0.968,1.762
		c0.264,0.793,0.089,0.527-0.086,1.408c-0.089,0.617,0,1.146,0.175,1.762c0,0,1.322,0.439,1.408,0.705
		c0.089,0.264,1.408,0.703,1.586,1.055c0.175,0.354,1.408,0.793,1.408,0.793s0.969,0.615,1.408,0.793
		c0.439,0.177,0.968,0.264,1.497,0.353c0,0,0.704,0.177,0.968,0.265c0.351,0.086,0.704,0.086,1.055,0.086
		c0,0,0.707-0.526,0.969-0.351c0.264,0.177,0.882-0.353,1.232,0.087c0.354,0.442,0.793,0.442,1.057,0.795
		c0.264,0.352,0.529,0.352,0.969,0.79c0.439,0.441,0.879,0.353,1.408,0.705c0.353,0.265,0.882,0.44,1.408,0.353
		c0.265,0,0.618,0,0.882,0.088c0.35,0.088,0.529-0.264,0.879,0.176c0.354,0.352,0.619,0.793,0.879,1.232
		c0.265,0.441,0.883,0.441,0.969,1.232c0.089,0.793,0.264,0.617,0.264,1.32c0,0.441,0.265,0.881,0.618,1.058
		c0.264,0.175,1.319,1.056,1.319,1.056l1.411,0.266l1.055,0.792L123.029,92.951L123.029,92.951z"/>
	<path fill="#9999CC" d="M152.346,7.995l5.46-0.704c0.968,0,2.023-0.265,2.905-0.706c0.968-0.704,0-0.704,2.905-1.232
		c2.905-0.527,2.023-0.791,3.61-0.527c1.494,0.265,1.937,0.265,3.609,0.527c1.673,0.265,2.022-0.176,3.609,0.265
		c1.144,0.265,2.288,0.354,3.435,0.265h3.874c1.937,0,3.695-1.057,4.399-0.439c0.708,0.615,1.058,0.439,3.435,0.703
		c2.379,0.266,3.258-0.264,4.227,0c0.969,0.266,2.642-0.174,4.488,0c1.234,0.088,2.38,0,3.609-0.174c0.707,0,1.411-0.97,2.379-0.178
		c0.969,0.792,2.202-0.266,2.377,0.792s1.937,0.265,0.175,1.058c-1.058,0.353-2.026,0.969-2.73,1.76
		c-1.233,1.057,0.793,2.025-1.758,2.994c-2.555,0.97-2.995-0.527-3.699,1.058c-0.704,1.585,0,2.024-0.175,2.905
		c-0.179,0.791-0.442,0.969-1.232,1.673c-0.793,0.704-0.793,0-2.73,0.438c-1.321,0.354-2.729,0.617-4.137,0.793
		c-1.058,0.176-2.202,0.439-3.17,0.969c-0.529,0.264,0.968,0.703-1.937,1.496c-2.905,0.793-3.609,0.705-4.402,1.762
		c-0.79,1.056-0.529,1.232-1.054,1.938c-0.529,0.703-2.201,3.434-2.995,2.729c-0.793-0.704-1.233-0.527-1.937-1.23
		c-0.529-0.707-1.058-1.41-1.497-2.201c-0.351-0.881-0.615-1.762-0.704-2.73c-0.175-0.792-1.408-2.729,0-2.464
		c0.879,0.263,1.761,0.263,2.641-0.177c0.354-0.354,0.618-0.793,0.793-1.233c-0.088-0.791-0.264-1.584-0.528-2.375
		c-0.439-0.793-0.175-1.498-0.793-2.29c-0.44-0.529-1.054-1.059-1.673-1.497c-0.968-0.792-0.703-1.231-2.201-1.407
		c-1.495-0.178-1.937-0.529-2.463-0.441c-0.528,0.09-2.379-0.969-0.443-1.057c1.233-0.088,2.466,0,3.699,0.178
		c0,0,2.465-1.059,1.672-1.233c-0.793-0.177,1.232-1.41-0.704-0.97c-1.937,0.439-4.138,0.97-4.667,1.057
		c-0.525,0.088-1.936,0.266-3.255,0.704c-1.322,0.442-2.995,0.265-3.874,1.233c-0.793,0.969,0,1.057-0.793,0.969
		c-0.793-0.176,0.704-0.969-1.232,0c-1.937,0.968-1.409,0.793-2.376,0.529c-0.618-0.178-1.144-0.354-1.672-0.705
		c0,0,1.233-0.176-0.529-0.264c-1.762-0.09-1.762-0.178-2.466-0.969c-0.704-0.793-0.265-0.793,0.175-1.059
		C151.993,8.522,152.17,8.259,152.346,7.995L152.346,7.995z"/>
	<path fill="#9999CC" d="M149.352,14.157c-0.703,0.703-2.376,1.673-1.937,2.025c0.442,0.352,0.704,1.936,1.497,1.496
		s-0.175-1.762,2.994-0.703c3.17,1.057,2.906-0.178,3.61,1.496s1.232,2.905,0.793,3.258c-0.443,0.615-1.147,1.057-1.937,1.231
		c-1.411,0.44-1.937,0.968-0.968,1.672c1.144,0.705,2.376,1.233,3.609,1.761c0.793,0.44,3.256,0.529,2.023-0.793
		c-1.233-1.32,0.264-1.76,0.264-1.76s2.379,1.76,1.497-0.266c-0.793-2.024-1.408-2.024-0.793-2.024
		c0.618,0.089,1.147,0.353,1.675,0.705l0.525-1.058l-0.525-1.76l-1.762-1.76c0,0,1.498-1.408-0.528-1.673
		c-2.026-0.265-1.938-0.265-2.995-0.969c-1.055-0.704-1.233-0.968-3.256-0.529c-0.968,0.177-1.851,0.353-2.73,0.704L149.352,14.157z
		"/>
	<path fill="#9999CC" d="M118.716,15.742c0.793-0.794,2.991-2.729,3.873-2.202c0.793,0.529,2.023-0.439,2.992,0.439
		c0.882,0.793,1.85,1.498,2.907,2.026c0.791,0.265,1.759-0.704,2.641-0.264c0.79,0.438,3.696-2.024,3.17-0.177
		c-0.529,1.849,0.704,2.465-0.793,2.643c-1.497,0.175-3.169,1.23-3.874,0.791c-0.618-0.616-1.586-0.703-2.376-0.264
		c-1.058,0.527-0.528,0.527-1.761,0.264s-1.497,0.266-1.762-0.176c-0.265-0.44-1.058-0.264-0.968-1.496
		c0.089-1.232,0.529-1.057-0.265-1.057c-0.793,0-1.498,0.176-2.023-0.264C119.859,15.83,119.332,15.742,118.716,15.742
		L118.716,15.742z"/>
</g>
</svg>
